# xmcd
#
# Track frame offsets:
#	150
#	14099
#	25542
#	39871
#	50509
#	62044
#	73422
#	84803
#	96324
#	107615
#	119241
#	130272
#
# Disc length: 1878 seconds
#
# Revision: 0
# Processed by: cddbd v1.5.2PL0 Copyright (c) Steve Scherf et al.
# Submitted via: audiograbber 1.83.01
#
DISCID=a307540c
DTITLE=JOSE ALFREDO JIMENEZ - EXITOS
DYEAR=1900
DGENRE=KAREOKE
TTITLE0=CUANDO SALE AL LUNA
TTITLE1=EL PERRO NEGRO
TTITLE2=LAS CIUDADES
TTITLE3=MUY DESPACITO
TTITLE4=CUANDO NADIE TE QUIERA
TTITLE5=AMOR DEL ALMA
TTITLE6=EL SIETE MARES
TTITLE7=DAME UN POCO DE TI
TTITLE8=ALMA DE ACERO
TTITLE9=SIN SANGRE EN LAS VENAS
TTITLE10=POR QUE VOLVISTE A MI
TTITLE11=CANTA,CANTA,CANTA
EXTD=
EXTT0=
EXTT1=
EXTT2=
EXTT3=
EXTT4=
EXTT5=
EXTT6=
EXTT7=
EXTT8=
EXTT9=
EXTT10=
EXTT11=
PLAYORDER=
